<svg  viewBox="0 0 15 15" fill="none" xmlns="http://www.w3.org/2000/svg">
    <path d="M14.7932 0.206764C14.7279 0.141227 14.6503 0.0892267 14.5649 0.0537455C14.4794 0.0182643 14.3878 0 14.2953 0C14.2028 0 14.1112 0.0182643 14.0257 0.0537455C13.9403 0.0892267 13.8626 0.141227 13.7973 0.206764L7.49975 6.50436L1.20216 0.206764C1.07009 0.0746995 0.890973 0.000506599 0.704206 0.0005066C0.517439 0.000506602 0.338322 0.0746996 0.206257 0.206764C0.074193 0.338828 8.81154e-09 0.517946 7.42002e-09 0.704713C6.0285e-09 0.89148 0.074193 1.0706 0.206257 1.20266L6.50385 7.50025L0.206257 13.7978C0.074193 13.9299 0 14.109 0 14.2958C0 14.4826 0.074193 14.6617 0.206257 14.7937C0.338322 14.9258 0.517439 15 0.704206 15C0.890973 15 1.07009 14.9258 1.20216 14.7937L7.49975 8.49615L13.7973 14.7937C13.9294 14.9258 14.1085 15 14.2953 15C14.4821 15 14.6612 14.9258 14.7932 14.7937C14.9253 14.6617 14.9995 14.4826 14.9995 14.2958C14.9995 14.109 14.9253 13.9299 14.7932 13.7978L8.49564 7.50025L14.7932 1.20266C14.8588 1.13735 14.9108 1.05975 14.9463 0.974298C14.9817 0.888849 15 0.797236 15 0.704713C15 0.61219 14.9817 0.520577 14.9463 0.435128C14.9108 0.349679 14.8588 0.272074 14.7932 0.206764Z" fill="black"/>
</svg>
