<svg width="10" height="10" viewBox="0 0 10 10" fill="none" xmlns="http://www.w3.org/2000/svg">
    <path fill-rule="evenodd" clip-rule="evenodd" d="M0.200919 1.17092C0.0722728 1.04229 0 0.867825 0 0.68591C0 0.503996 0.0722728 0.329532 0.200919 0.200899C0.329566 0.0722659 0.504048 1.68347e-07 0.685981 1.68347e-07C0.867915 1.68347e-07 1.0424 0.0722659 1.17104 0.200899L5.00012 4.03095L8.82989 0.201584C8.95919 0.0767095 9.13238 0.00761197 9.31214 0.0091739C9.4919 0.0107358 9.66386 0.0828328 9.79097 0.209936C9.91809 0.337038 9.99019 0.508977 9.99175 0.68872C9.99332 0.868464 9.92421 1.04163 9.79932 1.17092L5.96956 5.00029L9.79932 8.82966C9.92788 8.9583 10.0001 9.13272 10 9.31457C9.99994 9.49642 9.92763 9.6708 9.79898 9.79934C9.67033 9.92789 9.49589 10.0001 9.31402 10C9.13215 9.99994 8.95775 9.92763 8.8292 9.799L5.00012 5.96963L1.17036 9.799C1.04105 9.92388 0.867868 9.99297 0.688106 9.99141C0.508344 9.98985 0.336387 9.91775 0.209271 9.79065C0.0821549 9.66355 0.0100512 9.49161 0.00848912 9.31186C0.00692704 9.13212 0.0760317 8.95895 0.200919 8.82966L4.03068 5.00029L0.200919 1.17092Z" fill="black"/>
</svg>
