<svg width="29" height="24" viewBox="0 0 29 24" fill="none" xmlns="http://www.w3.org/2000/svg">
    <path d="M26.1935 0.403229H2.80645C1.2629 0.403229 0 1.07823 0 1.90323C0 2.72823 1.2629 3.40323 2.80645 3.40323H26.1935C27.7371 3.40323 29 2.72823 29 1.90323C29 1.07823 27.7371 0.403229 26.1935 0.403229Z" fill="white"/>
    <path d="M26.1935 10.6935H2.80645C1.2629 10.6935 0 11.3685 0 12.1935C0 13.0185 1.2629 13.6935 2.80645 13.6935H26.1935C27.7371 13.6935 29 13.0185 29 12.1935C29 11.3685 27.7371 10.6935 26.1935 10.6935Z" fill="white"/>
    <path d="M26.1935 20.9839H2.80645C1.2629 20.9839 0 21.6589 0 22.4839C0 23.3089 1.2629 23.9839 2.80645 23.9839H26.1935C27.7371 23.9839 29 23.3089 29 22.4839C29 21.6589 27.7371 20.9839 26.1935 20.9839Z" fill="white"/>
</svg>
