<svg width="25" height="33" viewBox="0 0 25 33" fill="none" xmlns="http://www.w3.org/2000/svg">
    <path d="M12.4999 16.4158C17.0074 16.4158 20.6615 12.7617 20.6615 8.25422C20.6615 3.74671 17.0074 0.0926561 12.4999 0.0926561C7.99243 0.0926561 4.33838 3.74671 4.33838 8.25422C4.33838 12.7617 7.99243 16.4158 12.4999 16.4158Z" fill="white"/>
    <path d="M16.0332 17.762H8.96655C6.64672 17.7646 4.42267 18.6874 2.7823 20.3277C1.14193 21.9681 0.219207 24.1921 0.216553 26.512V29.625C0.217502 30.4949 0.56351 31.329 1.17866 31.9441C1.79381 32.5593 2.62785 32.9053 3.4978 32.9062H21.502C22.3719 32.9053 23.206 32.5593 23.8211 31.9441C24.4363 31.329 24.7823 30.4949 24.7832 29.625V26.512C24.7806 24.1921 23.8578 21.9681 22.2175 20.3277C20.5771 18.6874 18.353 17.7646 16.0332 17.762Z" fill="white"/>
</svg>
